# xmcd CD database file
#
# Track frame offsets:
#	150
#	14672
#	27915
#	43227
#	54297
#	68285
#	83672
#	97592
#	110760
#	123802
#	137337
#	150552
#	163215
#	176917
#	189187
#	201935
#	215242
#	228452
#	241005
#	254627
#	265797
#	277565
#	290707
#	304370
#	316075
#
# Disc length: 4386 seconds
#
# Revision: 0
# Processed by: cddbd v1.4PL0 Copyright (c) Steve Scherf et al.
# Submitted via: CDex 1.50Beta7
#
DISCID=57112019
DTITLE=Duke Ellington - The Classic Tracks of the 20's &30's
DYEAR=1900
DGENRE=Jazz
TTITLE0=Creole Love Call
TTITLE1=Black And Tan Fantasy
TTITLE2=East St. Louis Toodle-oo
TTITLE3=Jubilee Stomp
TTITLE4=Hot And Bothered
TTITLE5=The Mooche
TTITLE6=Saturday Night Function
TTITLE7=Ring Dem Bells
TTITLE8=Mood Indigo
TTITLE9=It Don't Mean A Thing
TTITLE10=Slippery Horn
TTITLE11=Drop Me Off In Harlem
TTITLE12=In The Shade Of The Old Apple Tree
TTITLE13=Daybreak Express
TTITLE14=Stompy Jones
TTITLE15=Solitude
TTITLE16=Clarinet Lament
TTITLE17=Echo's Of Harlem
TTITLE18=Trumpet In Spades
TTITLE19=Caravan
TTITLE20=Baggin' In Brass
TTITLE21=Prelude To A Kiss
TTITLE22=Boy Meets Horn
TTITLE23=The Sergeant Was Shy
TTITLE24=Tootin' Through The Roof
EXTD=
EXTT0=
EXTT1=
EXTT2=
EXTT3=
EXTT4=
EXTT5=
EXTT6=
EXTT7=
EXTT8=
EXTT9=
EXTT10=
EXTT11=
EXTT12=
EXTT13=
EXTT14=
EXTT15=
EXTT16=
EXTT17=
EXTT18=
EXTT19=
EXTT20=
EXTT21=
EXTT22=
EXTT23=
EXTT24=
PLAYORDER=
